<svg xmlns="http://www.w3.org/2000/svg" width="1200" height="640" viewBox="0 0 1200 640" role="img" aria-label="A BARGAIN OF SALT AND CROWS">
<title>A BARGAIN OF SALT AND CROWS</title><rect width="1200" height="640" fill="#221d33"/>
<g fill="none" stroke="#e8c99b" opacity=".12"><path d="M40 40h1120v560H40zM760 40v560"/></g>
<g fill="none" stroke="#e8c99b" stroke-width="4" opacity=".26"><path d="m818 257 42 180h212l42-180-98 64-52-111-51 111ZM860 465h215M890 490h150M940 154l25-38 50 13-36 18 12 29-30-11-21-11m98 15 35-20 42 25-40-2 6 28-23-22"/></g>
<g fill="#e8c99b"><text x="74" y="115" font-family="Arial,sans-serif" font-size="20" letter-spacing="2">ROMANTASY / A DANGEROUS BARGAIN</text>
<g font-family="Georgia,serif"><text x="72" y="270" font-size="78" letter-spacing="-1">A BARGAIN OF</text><text x="72" y="367" font-size="78" letter-spacing="-1">SALT AND CROWS</text><text x="74" y="481" font-size="29" font-style="italic">The wedding knife was meant for him.</text></g>
<path d="M74 422h62" stroke="#e8c99b" stroke-width="2"/><text x="74" y="574" font-family="Arial,sans-serif" font-size="18" letter-spacing="4" opacity=".7">RETALE / ENGLISH COLLECTION</text></g></svg>