<svg xmlns="http://www.w3.org/2000/svg" width="1200" height="640" viewBox="0 0 1200 640" role="img" aria-label="退婚当天我继承了反派宗门">
 <title>退婚当天我继承了反派宗门</title>
 <rect width="1200" height="640" fill="#101d1b"/>
 <g stroke="#b7efc5" opacity=".1"><path d="M0 64h1200M0 576h1200M64 0v640M1136 0v640"/><circle cx="1060" cy="280" r="350" fill="none"/></g>
 <g style="color:#b7efc5" fill="none" stroke="#b7efc5" stroke-width="5" opacity=".19"><path d="M940 120v390m-55-220h110m-80-45h50m-72 44 47 65 47-65"/><rect x="817" y="387" width="206" height="142" rx="8"/><path d="M850 422h135v74H850zM886 422v74m50-74v74m-86-36h135"/></g>
 <g fill="#b7efc5" font-family="Noto Serif SC,Songti SC,STSong,serif">
 <text x="76" y="116" font-size="26" letter-spacing="3">玄幻 · 宗门经营</text>
 <text x="74" y="274" font-size="76" font-weight="650">退婚当天</text><text x="74" y="376" font-size="76" font-weight="650">我继承了反派宗门</text>
 <rect x="76" y="433" width="56" height="3"/>
 <text x="76" y="491" font-size="32">诸位仙长，先结一下欠款。</text>
 <text x="76" y="582" font-size="20" letter-spacing="4" opacity=".6">RETALE · STORY COLLECTION</text>
 </g></svg>