<svg xmlns="http://www.w3.org/2000/svg" width="1200" height="640" viewBox="0 0 1200 640" role="img" aria-label="PRIDE AND PREJUDICE">
<title>PRIDE AND PREJUDICE</title><rect width="1200" height="640" fill="#e7dfcf"/>
<g fill="none" stroke="#414c45" opacity=".12"><path d="M40 40h1120v560H40zM760 40v560"/></g>
<g fill="none" stroke="#414c45" stroke-width="4" opacity=".26"><path d="m804 273 305-89 77 263-305 89ZM810 279l195 97 108-182M881 531l70-140m231 54-130-83"/><circle cx="1006" cy="374" r="33"/><path d="m884 197 177-87-33 121m-32-102-69 96"/></g>
<g fill="#414c45"><text x="74" y="115" font-family="Arial,sans-serif" font-size="20" letter-spacing="2">JANE AUSTEN / CHAPTERS I–VI</text>
<g font-family="Georgia,serif"><text x="72" y="270" font-size="78" letter-spacing="-1">PRIDE AND</text><text x="72" y="367" font-size="78" letter-spacing="-1">PREJUDICE</text><text x="74" y="481" font-size="29" font-style="italic">An excellent income. An unfortunate remark.</text></g>
<path d="M74 422h62" stroke="#414c45" stroke-width="2"/><text x="74" y="574" font-family="Arial,sans-serif" font-size="18" letter-spacing="4" opacity=".7">RETALE / ENGLISH COLLECTION</text></g></svg>